<svg xmlns="http://www.w3.org/2000/svg" width="19.001" height="19.001" viewBox="0 0 19.001 19.001">
  <g id="close" transform="translate(-0.001 45)">
    <g id="Group_754" data-name="Group 754" transform="translate(0.001 -45)">
      <g id="Group_753" data-name="Group 753" transform="translate(0 0)">
        <path id="Path_258" data-name="Path 258" d="M11.543-35.508l7.037-7.037a1.437,1.437,0,0,0,0-2.033,1.437,1.437,0,0,0-2.033,0L9.51-37.541,2.472-44.578a1.437,1.437,0,0,0-2.033,0,1.438,1.438,0,0,0,0,2.033l7.038,7.037L.423-28.454a1.437,1.437,0,0,0,0,2.033A1.432,1.432,0,0,0,1.44-26a1.432,1.432,0,0,0,1.016-.422L9.51-33.474l7.037,7.037a1.435,1.435,0,0,0,1.017.422,1.434,1.434,0,0,0,1.016-.422,1.437,1.437,0,0,0,0-2.033Z" transform="translate(-0.001 45)" fill="#fff"/>
      </g>
    </g>
  </g>
</svg>
