<svg xmlns="http://www.w3.org/2000/svg" xmlns:xlink="http://www.w3.org/1999/xlink" width="72" height="438" viewBox="0 0 72 438">
  <defs>
    <clipPath id="clip-path">
      <rect width="72" height="438" fill="none"/>
    </clipPath>
  </defs>
  <g id="Repeat_Grid_10" data-name="Repeat Grid 10" clip-path="url(#clip-path)">
    <g transform="translate(-104 -3503)">
      <rect id="Rectangle_1558" data-name="Rectangle 1558" width="10" height="10" transform="translate(106 3506)" fill="#222121"/>
    </g>
    <g transform="translate(-69 -3503)">
      <rect id="Rectangle_1558-2" data-name="Rectangle 1558" width="10" height="10" transform="translate(106 3506)" fill="#222121"/>
    </g>
    <g transform="translate(-34 -3503)">
      <rect id="Rectangle_1558-3" data-name="Rectangle 1558" width="10" height="10" transform="translate(106 3506)" fill="#222121"/>
    </g>
    <g transform="translate(-104 -3468)">
      <rect id="Rectangle_1558-4" data-name="Rectangle 1558" width="10" height="10" transform="translate(106 3506)" fill="#222121"/>
    </g>
    <g transform="translate(-69 -3468)">
      <rect id="Rectangle_1558-5" data-name="Rectangle 1558" width="10" height="10" transform="translate(106 3506)" fill="#222121"/>
    </g>
    <g transform="translate(-34 -3468)">
      <rect id="Rectangle_1558-6" data-name="Rectangle 1558" width="10" height="10" transform="translate(106 3506)" fill="#222121"/>
    </g>
    <g transform="translate(-104 -3433)">
      <rect id="Rectangle_1558-7" data-name="Rectangle 1558" width="10" height="10" transform="translate(106 3506)" fill="#222121"/>
    </g>
    <g transform="translate(-69 -3433)">
      <rect id="Rectangle_1558-8" data-name="Rectangle 1558" width="10" height="10" transform="translate(106 3506)" fill="#222121"/>
    </g>
    <g transform="translate(-34 -3433)">
      <rect id="Rectangle_1558-9" data-name="Rectangle 1558" width="10" height="10" transform="translate(106 3506)" fill="#222121"/>
    </g>
    <g transform="translate(-104 -3398)">
      <rect id="Rectangle_1558-10" data-name="Rectangle 1558" width="10" height="10" transform="translate(106 3506)" fill="#222121"/>
    </g>
    <g transform="translate(-69 -3398)">
      <rect id="Rectangle_1558-11" data-name="Rectangle 1558" width="10" height="10" transform="translate(106 3506)" fill="#222121"/>
    </g>
    <g transform="translate(-34 -3398)">
      <rect id="Rectangle_1558-12" data-name="Rectangle 1558" width="10" height="10" transform="translate(106 3506)" fill="#222121"/>
    </g>
    <g transform="translate(-104 -3363)">
      <rect id="Rectangle_1558-13" data-name="Rectangle 1558" width="10" height="10" transform="translate(106 3506)" fill="#222121"/>
    </g>
    <g transform="translate(-69 -3363)">
      <rect id="Rectangle_1558-14" data-name="Rectangle 1558" width="10" height="10" transform="translate(106 3506)" fill="#222121"/>
    </g>
    <g transform="translate(-34 -3363)">
      <rect id="Rectangle_1558-15" data-name="Rectangle 1558" width="10" height="10" transform="translate(106 3506)" fill="#222121"/>
    </g>
    <g transform="translate(-104 -3328)">
      <rect id="Rectangle_1558-16" data-name="Rectangle 1558" width="10" height="10" transform="translate(106 3506)" fill="#222121"/>
    </g>
    <g transform="translate(-69 -3328)">
      <rect id="Rectangle_1558-17" data-name="Rectangle 1558" width="10" height="10" transform="translate(106 3506)" fill="#222121"/>
    </g>
    <g transform="translate(-34 -3328)">
      <rect id="Rectangle_1558-18" data-name="Rectangle 1558" width="10" height="10" transform="translate(106 3506)" fill="#222121"/>
    </g>
    <g transform="translate(-104 -3293)">
      <rect id="Rectangle_1558-19" data-name="Rectangle 1558" width="10" height="10" transform="translate(106 3506)" fill="#222121"/>
    </g>
    <g transform="translate(-69 -3293)">
      <rect id="Rectangle_1558-20" data-name="Rectangle 1558" width="10" height="10" transform="translate(106 3506)" fill="#222121"/>
    </g>
    <g transform="translate(-34 -3293)">
      <rect id="Rectangle_1558-21" data-name="Rectangle 1558" width="10" height="10" transform="translate(106 3506)" fill="#222121"/>
    </g>
    <g transform="translate(-104 -3258)">
      <rect id="Rectangle_1558-22" data-name="Rectangle 1558" width="10" height="10" transform="translate(106 3506)" fill="#222121"/>
    </g>
    <g transform="translate(-69 -3258)">
      <rect id="Rectangle_1558-23" data-name="Rectangle 1558" width="10" height="10" transform="translate(106 3506)" fill="#222121"/>
    </g>
    <g transform="translate(-34 -3258)">
      <rect id="Rectangle_1558-24" data-name="Rectangle 1558" width="10" height="10" transform="translate(106 3506)" fill="#222121"/>
    </g>
    <g transform="translate(-104 -3223)">
      <rect id="Rectangle_1558-25" data-name="Rectangle 1558" width="10" height="10" transform="translate(106 3506)" fill="#222121"/>
    </g>
    <g transform="translate(-69 -3223)">
      <rect id="Rectangle_1558-26" data-name="Rectangle 1558" width="10" height="10" transform="translate(106 3506)" fill="#222121"/>
    </g>
    <g transform="translate(-34 -3223)">
      <rect id="Rectangle_1558-27" data-name="Rectangle 1558" width="10" height="10" transform="translate(106 3506)" fill="#222121"/>
    </g>
    <g transform="translate(-104 -3188)">
      <rect id="Rectangle_1558-28" data-name="Rectangle 1558" width="10" height="10" transform="translate(106 3506)" fill="#222121"/>
    </g>
    <g transform="translate(-69 -3188)">
      <rect id="Rectangle_1558-29" data-name="Rectangle 1558" width="10" height="10" transform="translate(106 3506)" fill="#222121"/>
    </g>
    <g transform="translate(-34 -3188)">
      <rect id="Rectangle_1558-30" data-name="Rectangle 1558" width="10" height="10" transform="translate(106 3506)" fill="#222121"/>
    </g>
    <g transform="translate(-104 -3153)">
      <rect id="Rectangle_1558-31" data-name="Rectangle 1558" width="10" height="10" transform="translate(106 3506)" fill="#222121"/>
    </g>
    <g transform="translate(-69 -3153)">
      <rect id="Rectangle_1558-32" data-name="Rectangle 1558" width="10" height="10" transform="translate(106 3506)" fill="#222121"/>
    </g>
    <g transform="translate(-34 -3153)">
      <rect id="Rectangle_1558-33" data-name="Rectangle 1558" width="10" height="10" transform="translate(106 3506)" fill="#222121"/>
    </g>
    <g transform="translate(-104 -3118)">
      <rect id="Rectangle_1558-34" data-name="Rectangle 1558" width="10" height="10" transform="translate(106 3506)" fill="#222121"/>
    </g>
    <g transform="translate(-69 -3118)">
      <rect id="Rectangle_1558-35" data-name="Rectangle 1558" width="10" height="10" transform="translate(106 3506)" fill="#222121"/>
    </g>
    <g transform="translate(-34 -3118)">
      <rect id="Rectangle_1558-36" data-name="Rectangle 1558" width="10" height="10" transform="translate(106 3506)" fill="#222121"/>
    </g>
    <g transform="translate(-104 -3083)">
      <rect id="Rectangle_1558-37" data-name="Rectangle 1558" width="10" height="10" transform="translate(106 3506)" fill="#222121"/>
    </g>
    <g transform="translate(-69 -3083)">
      <rect id="Rectangle_1558-38" data-name="Rectangle 1558" width="10" height="10" transform="translate(106 3506)" fill="#222121"/>
    </g>
    <g transform="translate(-34 -3083)">
      <rect id="Rectangle_1558-39" data-name="Rectangle 1558" width="10" height="10" transform="translate(106 3506)" fill="#222121"/>
    </g>
  </g>
</svg>
