<svg xmlns="http://www.w3.org/2000/svg" xmlns:xlink="http://www.w3.org/1999/xlink" width="399" height="438" viewBox="0 0 399 438">
  <defs>
    <clipPath id="clip-path">
      <rect width="399" height="438" fill="none"/>
    </clipPath>
  </defs>
  <g id="Repeat_Grid_9" data-name="Repeat Grid 9" clip-path="url(#clip-path)">
    <g transform="translate(-104 -3503)">
      <rect id="Rectangle_1558" data-name="Rectangle 1558" width="10" height="10" transform="translate(106 3506)" fill="#222121"/>
    </g>
    <g transform="translate(-69 -3503)">
      <rect id="Rectangle_1558-2" data-name="Rectangle 1558" width="10" height="10" transform="translate(106 3506)" fill="#222121"/>
    </g>
    <g transform="translate(-34 -3503)">
      <rect id="Rectangle_1558-3" data-name="Rectangle 1558" width="10" height="10" transform="translate(106 3506)" fill="#222121"/>
    </g>
    <g transform="translate(1 -3503)">
      <rect id="Rectangle_1558-4" data-name="Rectangle 1558" width="10" height="10" transform="translate(106 3506)" fill="#222121"/>
    </g>
    <g transform="translate(36 -3503)">
      <rect id="Rectangle_1558-5" data-name="Rectangle 1558" width="10" height="10" transform="translate(106 3506)" fill="#222121"/>
    </g>
    <g transform="translate(71 -3503)">
      <rect id="Rectangle_1558-6" data-name="Rectangle 1558" width="10" height="10" transform="translate(106 3506)" fill="#222121"/>
    </g>
    <g transform="translate(106 -3503)">
      <rect id="Rectangle_1558-7" data-name="Rectangle 1558" width="10" height="10" transform="translate(106 3506)" fill="#222121"/>
    </g>
    <g transform="translate(141 -3503)">
      <rect id="Rectangle_1558-8" data-name="Rectangle 1558" width="10" height="10" transform="translate(106 3506)" fill="#222121"/>
    </g>
    <g transform="translate(176 -3503)">
      <rect id="Rectangle_1558-9" data-name="Rectangle 1558" width="10" height="10" transform="translate(106 3506)" fill="#222121"/>
    </g>
    <g transform="translate(211 -3503)">
      <rect id="Rectangle_1558-10" data-name="Rectangle 1558" width="10" height="10" transform="translate(106 3506)" fill="#222121"/>
    </g>
    <g transform="translate(246 -3503)">
      <rect id="Rectangle_1558-11" data-name="Rectangle 1558" width="10" height="10" transform="translate(106 3506)" fill="#222121"/>
    </g>
    <g transform="translate(281 -3503)">
      <rect id="Rectangle_1558-12" data-name="Rectangle 1558" width="10" height="10" transform="translate(106 3506)" fill="#222121"/>
    </g>
    <g transform="translate(-104 -3468)">
      <rect id="Rectangle_1558-13" data-name="Rectangle 1558" width="10" height="10" transform="translate(106 3506)" fill="#222121"/>
    </g>
    <g transform="translate(-69 -3468)">
      <rect id="Rectangle_1558-14" data-name="Rectangle 1558" width="10" height="10" transform="translate(106 3506)" fill="#222121"/>
    </g>
    <g transform="translate(-34 -3468)">
      <rect id="Rectangle_1558-15" data-name="Rectangle 1558" width="10" height="10" transform="translate(106 3506)" fill="#222121"/>
    </g>
    <g transform="translate(1 -3468)">
      <rect id="Rectangle_1558-16" data-name="Rectangle 1558" width="10" height="10" transform="translate(106 3506)" fill="#222121"/>
    </g>
    <g transform="translate(36 -3468)">
      <rect id="Rectangle_1558-17" data-name="Rectangle 1558" width="10" height="10" transform="translate(106 3506)" fill="#222121"/>
    </g>
    <g transform="translate(71 -3468)">
      <rect id="Rectangle_1558-18" data-name="Rectangle 1558" width="10" height="10" transform="translate(106 3506)" fill="#222121"/>
    </g>
    <g transform="translate(106 -3468)">
      <rect id="Rectangle_1558-19" data-name="Rectangle 1558" width="10" height="10" transform="translate(106 3506)" fill="#222121"/>
    </g>
    <g transform="translate(141 -3468)">
      <rect id="Rectangle_1558-20" data-name="Rectangle 1558" width="10" height="10" transform="translate(106 3506)" fill="#222121"/>
    </g>
    <g transform="translate(176 -3468)">
      <rect id="Rectangle_1558-21" data-name="Rectangle 1558" width="10" height="10" transform="translate(106 3506)" fill="#222121"/>
    </g>
    <g transform="translate(211 -3468)">
      <rect id="Rectangle_1558-22" data-name="Rectangle 1558" width="10" height="10" transform="translate(106 3506)" fill="#222121"/>
    </g>
    <g transform="translate(246 -3468)">
      <rect id="Rectangle_1558-23" data-name="Rectangle 1558" width="10" height="10" transform="translate(106 3506)" fill="#222121"/>
    </g>
    <g transform="translate(281 -3468)">
      <rect id="Rectangle_1558-24" data-name="Rectangle 1558" width="10" height="10" transform="translate(106 3506)" fill="#222121"/>
    </g>
    <g transform="translate(-104 -3433)">
      <rect id="Rectangle_1558-25" data-name="Rectangle 1558" width="10" height="10" transform="translate(106 3506)" fill="#222121"/>
    </g>
    <g transform="translate(-69 -3433)">
      <rect id="Rectangle_1558-26" data-name="Rectangle 1558" width="10" height="10" transform="translate(106 3506)" fill="#222121"/>
    </g>
    <g transform="translate(-34 -3433)">
      <rect id="Rectangle_1558-27" data-name="Rectangle 1558" width="10" height="10" transform="translate(106 3506)" fill="#222121"/>
    </g>
    <g transform="translate(1 -3433)">
      <rect id="Rectangle_1558-28" data-name="Rectangle 1558" width="10" height="10" transform="translate(106 3506)" fill="#222121"/>
    </g>
    <g transform="translate(36 -3433)">
      <rect id="Rectangle_1558-29" data-name="Rectangle 1558" width="10" height="10" transform="translate(106 3506)" fill="#222121"/>
    </g>
    <g transform="translate(71 -3433)">
      <rect id="Rectangle_1558-30" data-name="Rectangle 1558" width="10" height="10" transform="translate(106 3506)" fill="#222121"/>
    </g>
    <g transform="translate(106 -3433)">
      <rect id="Rectangle_1558-31" data-name="Rectangle 1558" width="10" height="10" transform="translate(106 3506)" fill="#222121"/>
    </g>
    <g transform="translate(141 -3433)">
      <rect id="Rectangle_1558-32" data-name="Rectangle 1558" width="10" height="10" transform="translate(106 3506)" fill="#222121"/>
    </g>
    <g transform="translate(176 -3433)">
      <rect id="Rectangle_1558-33" data-name="Rectangle 1558" width="10" height="10" transform="translate(106 3506)" fill="#222121"/>
    </g>
    <g transform="translate(211 -3433)">
      <rect id="Rectangle_1558-34" data-name="Rectangle 1558" width="10" height="10" transform="translate(106 3506)" fill="#222121"/>
    </g>
    <g transform="translate(246 -3433)">
      <rect id="Rectangle_1558-35" data-name="Rectangle 1558" width="10" height="10" transform="translate(106 3506)" fill="#222121"/>
    </g>
    <g transform="translate(281 -3433)">
      <rect id="Rectangle_1558-36" data-name="Rectangle 1558" width="10" height="10" transform="translate(106 3506)" fill="#222121"/>
    </g>
    <g transform="translate(-104 -3398)">
      <rect id="Rectangle_1558-37" data-name="Rectangle 1558" width="10" height="10" transform="translate(106 3506)" fill="#222121"/>
    </g>
    <g transform="translate(-69 -3398)">
      <rect id="Rectangle_1558-38" data-name="Rectangle 1558" width="10" height="10" transform="translate(106 3506)" fill="#222121"/>
    </g>
    <g transform="translate(-34 -3398)">
      <rect id="Rectangle_1558-39" data-name="Rectangle 1558" width="10" height="10" transform="translate(106 3506)" fill="#222121"/>
    </g>
    <g transform="translate(1 -3398)">
      <rect id="Rectangle_1558-40" data-name="Rectangle 1558" width="10" height="10" transform="translate(106 3506)" fill="#222121"/>
    </g>
    <g transform="translate(36 -3398)">
      <rect id="Rectangle_1558-41" data-name="Rectangle 1558" width="10" height="10" transform="translate(106 3506)" fill="#222121"/>
    </g>
    <g transform="translate(71 -3398)">
      <rect id="Rectangle_1558-42" data-name="Rectangle 1558" width="10" height="10" transform="translate(106 3506)" fill="#222121"/>
    </g>
    <g transform="translate(106 -3398)">
      <rect id="Rectangle_1558-43" data-name="Rectangle 1558" width="10" height="10" transform="translate(106 3506)" fill="#222121"/>
    </g>
    <g transform="translate(141 -3398)">
      <rect id="Rectangle_1558-44" data-name="Rectangle 1558" width="10" height="10" transform="translate(106 3506)" fill="#222121"/>
    </g>
    <g transform="translate(176 -3398)">
      <rect id="Rectangle_1558-45" data-name="Rectangle 1558" width="10" height="10" transform="translate(106 3506)" fill="#222121"/>
    </g>
    <g transform="translate(211 -3398)">
      <rect id="Rectangle_1558-46" data-name="Rectangle 1558" width="10" height="10" transform="translate(106 3506)" fill="#222121"/>
    </g>
    <g transform="translate(246 -3398)">
      <rect id="Rectangle_1558-47" data-name="Rectangle 1558" width="10" height="10" transform="translate(106 3506)" fill="#222121"/>
    </g>
    <g transform="translate(281 -3398)">
      <rect id="Rectangle_1558-48" data-name="Rectangle 1558" width="10" height="10" transform="translate(106 3506)" fill="#222121"/>
    </g>
    <g transform="translate(-104 -3363)">
      <rect id="Rectangle_1558-49" data-name="Rectangle 1558" width="10" height="10" transform="translate(106 3506)" fill="#222121"/>
    </g>
    <g transform="translate(-69 -3363)">
      <rect id="Rectangle_1558-50" data-name="Rectangle 1558" width="10" height="10" transform="translate(106 3506)" fill="#222121"/>
    </g>
    <g transform="translate(-34 -3363)">
      <rect id="Rectangle_1558-51" data-name="Rectangle 1558" width="10" height="10" transform="translate(106 3506)" fill="#222121"/>
    </g>
    <g transform="translate(1 -3363)">
      <rect id="Rectangle_1558-52" data-name="Rectangle 1558" width="10" height="10" transform="translate(106 3506)" fill="#222121"/>
    </g>
    <g transform="translate(36 -3363)">
      <rect id="Rectangle_1558-53" data-name="Rectangle 1558" width="10" height="10" transform="translate(106 3506)" fill="#222121"/>
    </g>
    <g transform="translate(71 -3363)">
      <rect id="Rectangle_1558-54" data-name="Rectangle 1558" width="10" height="10" transform="translate(106 3506)" fill="#222121"/>
    </g>
    <g transform="translate(106 -3363)">
      <rect id="Rectangle_1558-55" data-name="Rectangle 1558" width="10" height="10" transform="translate(106 3506)" fill="#222121"/>
    </g>
    <g transform="translate(141 -3363)">
      <rect id="Rectangle_1558-56" data-name="Rectangle 1558" width="10" height="10" transform="translate(106 3506)" fill="#222121"/>
    </g>
    <g transform="translate(176 -3363)">
      <rect id="Rectangle_1558-57" data-name="Rectangle 1558" width="10" height="10" transform="translate(106 3506)" fill="#222121"/>
    </g>
    <g transform="translate(211 -3363)">
      <rect id="Rectangle_1558-58" data-name="Rectangle 1558" width="10" height="10" transform="translate(106 3506)" fill="#222121"/>
    </g>
    <g transform="translate(246 -3363)">
      <rect id="Rectangle_1558-59" data-name="Rectangle 1558" width="10" height="10" transform="translate(106 3506)" fill="#222121"/>
    </g>
    <g transform="translate(281 -3363)">
      <rect id="Rectangle_1558-60" data-name="Rectangle 1558" width="10" height="10" transform="translate(106 3506)" fill="#222121"/>
    </g>
    <g transform="translate(-104 -3328)">
      <rect id="Rectangle_1558-61" data-name="Rectangle 1558" width="10" height="10" transform="translate(106 3506)" fill="#222121"/>
    </g>
    <g transform="translate(-69 -3328)">
      <rect id="Rectangle_1558-62" data-name="Rectangle 1558" width="10" height="10" transform="translate(106 3506)" fill="#222121"/>
    </g>
    <g transform="translate(-34 -3328)">
      <rect id="Rectangle_1558-63" data-name="Rectangle 1558" width="10" height="10" transform="translate(106 3506)" fill="#222121"/>
    </g>
    <g transform="translate(1 -3328)">
      <rect id="Rectangle_1558-64" data-name="Rectangle 1558" width="10" height="10" transform="translate(106 3506)" fill="#222121"/>
    </g>
    <g transform="translate(36 -3328)">
      <rect id="Rectangle_1558-65" data-name="Rectangle 1558" width="10" height="10" transform="translate(106 3506)" fill="#222121"/>
    </g>
    <g transform="translate(71 -3328)">
      <rect id="Rectangle_1558-66" data-name="Rectangle 1558" width="10" height="10" transform="translate(106 3506)" fill="#222121"/>
    </g>
    <g transform="translate(106 -3328)">
      <rect id="Rectangle_1558-67" data-name="Rectangle 1558" width="10" height="10" transform="translate(106 3506)" fill="#222121"/>
    </g>
    <g transform="translate(141 -3328)">
      <rect id="Rectangle_1558-68" data-name="Rectangle 1558" width="10" height="10" transform="translate(106 3506)" fill="#222121"/>
    </g>
    <g transform="translate(176 -3328)">
      <rect id="Rectangle_1558-69" data-name="Rectangle 1558" width="10" height="10" transform="translate(106 3506)" fill="#222121"/>
    </g>
    <g transform="translate(211 -3328)">
      <rect id="Rectangle_1558-70" data-name="Rectangle 1558" width="10" height="10" transform="translate(106 3506)" fill="#222121"/>
    </g>
    <g transform="translate(246 -3328)">
      <rect id="Rectangle_1558-71" data-name="Rectangle 1558" width="10" height="10" transform="translate(106 3506)" fill="#222121"/>
    </g>
    <g transform="translate(281 -3328)">
      <rect id="Rectangle_1558-72" data-name="Rectangle 1558" width="10" height="10" transform="translate(106 3506)" fill="#222121"/>
    </g>
    <g transform="translate(-104 -3293)">
      <rect id="Rectangle_1558-73" data-name="Rectangle 1558" width="10" height="10" transform="translate(106 3506)" fill="#222121"/>
    </g>
    <g transform="translate(-69 -3293)">
      <rect id="Rectangle_1558-74" data-name="Rectangle 1558" width="10" height="10" transform="translate(106 3506)" fill="#222121"/>
    </g>
    <g transform="translate(-34 -3293)">
      <rect id="Rectangle_1558-75" data-name="Rectangle 1558" width="10" height="10" transform="translate(106 3506)" fill="#222121"/>
    </g>
    <g transform="translate(1 -3293)">
      <rect id="Rectangle_1558-76" data-name="Rectangle 1558" width="10" height="10" transform="translate(106 3506)" fill="#222121"/>
    </g>
    <g transform="translate(36 -3293)">
      <rect id="Rectangle_1558-77" data-name="Rectangle 1558" width="10" height="10" transform="translate(106 3506)" fill="#222121"/>
    </g>
    <g transform="translate(71 -3293)">
      <rect id="Rectangle_1558-78" data-name="Rectangle 1558" width="10" height="10" transform="translate(106 3506)" fill="#222121"/>
    </g>
    <g transform="translate(106 -3293)">
      <rect id="Rectangle_1558-79" data-name="Rectangle 1558" width="10" height="10" transform="translate(106 3506)" fill="#222121"/>
    </g>
    <g transform="translate(141 -3293)">
      <rect id="Rectangle_1558-80" data-name="Rectangle 1558" width="10" height="10" transform="translate(106 3506)" fill="#222121"/>
    </g>
    <g transform="translate(176 -3293)">
      <rect id="Rectangle_1558-81" data-name="Rectangle 1558" width="10" height="10" transform="translate(106 3506)" fill="#222121"/>
    </g>
    <g transform="translate(211 -3293)">
      <rect id="Rectangle_1558-82" data-name="Rectangle 1558" width="10" height="10" transform="translate(106 3506)" fill="#222121"/>
    </g>
    <g transform="translate(246 -3293)">
      <rect id="Rectangle_1558-83" data-name="Rectangle 1558" width="10" height="10" transform="translate(106 3506)" fill="#222121"/>
    </g>
    <g transform="translate(281 -3293)">
      <rect id="Rectangle_1558-84" data-name="Rectangle 1558" width="10" height="10" transform="translate(106 3506)" fill="#222121"/>
    </g>
    <g transform="translate(-104 -3258)">
      <rect id="Rectangle_1558-85" data-name="Rectangle 1558" width="10" height="10" transform="translate(106 3506)" fill="#222121"/>
    </g>
    <g transform="translate(-69 -3258)">
      <rect id="Rectangle_1558-86" data-name="Rectangle 1558" width="10" height="10" transform="translate(106 3506)" fill="#222121"/>
    </g>
    <g transform="translate(-34 -3258)">
      <rect id="Rectangle_1558-87" data-name="Rectangle 1558" width="10" height="10" transform="translate(106 3506)" fill="#222121"/>
    </g>
    <g transform="translate(1 -3258)">
      <rect id="Rectangle_1558-88" data-name="Rectangle 1558" width="10" height="10" transform="translate(106 3506)" fill="#222121"/>
    </g>
    <g transform="translate(36 -3258)">
      <rect id="Rectangle_1558-89" data-name="Rectangle 1558" width="10" height="10" transform="translate(106 3506)" fill="#222121"/>
    </g>
    <g transform="translate(71 -3258)">
      <rect id="Rectangle_1558-90" data-name="Rectangle 1558" width="10" height="10" transform="translate(106 3506)" fill="#222121"/>
    </g>
    <g transform="translate(106 -3258)">
      <rect id="Rectangle_1558-91" data-name="Rectangle 1558" width="10" height="10" transform="translate(106 3506)" fill="#222121"/>
    </g>
    <g transform="translate(141 -3258)">
      <rect id="Rectangle_1558-92" data-name="Rectangle 1558" width="10" height="10" transform="translate(106 3506)" fill="#222121"/>
    </g>
    <g transform="translate(176 -3258)">
      <rect id="Rectangle_1558-93" data-name="Rectangle 1558" width="10" height="10" transform="translate(106 3506)" fill="#222121"/>
    </g>
    <g transform="translate(211 -3258)">
      <rect id="Rectangle_1558-94" data-name="Rectangle 1558" width="10" height="10" transform="translate(106 3506)" fill="#222121"/>
    </g>
    <g transform="translate(246 -3258)">
      <rect id="Rectangle_1558-95" data-name="Rectangle 1558" width="10" height="10" transform="translate(106 3506)" fill="#222121"/>
    </g>
    <g transform="translate(281 -3258)">
      <rect id="Rectangle_1558-96" data-name="Rectangle 1558" width="10" height="10" transform="translate(106 3506)" fill="#222121"/>
    </g>
    <g transform="translate(-104 -3223)">
      <rect id="Rectangle_1558-97" data-name="Rectangle 1558" width="10" height="10" transform="translate(106 3506)" fill="#222121"/>
    </g>
    <g transform="translate(-69 -3223)">
      <rect id="Rectangle_1558-98" data-name="Rectangle 1558" width="10" height="10" transform="translate(106 3506)" fill="#222121"/>
    </g>
    <g transform="translate(-34 -3223)">
      <rect id="Rectangle_1558-99" data-name="Rectangle 1558" width="10" height="10" transform="translate(106 3506)" fill="#222121"/>
    </g>
    <g transform="translate(1 -3223)">
      <rect id="Rectangle_1558-100" data-name="Rectangle 1558" width="10" height="10" transform="translate(106 3506)" fill="#222121"/>
    </g>
    <g transform="translate(36 -3223)">
      <rect id="Rectangle_1558-101" data-name="Rectangle 1558" width="10" height="10" transform="translate(106 3506)" fill="#222121"/>
    </g>
    <g transform="translate(71 -3223)">
      <rect id="Rectangle_1558-102" data-name="Rectangle 1558" width="10" height="10" transform="translate(106 3506)" fill="#222121"/>
    </g>
    <g transform="translate(106 -3223)">
      <rect id="Rectangle_1558-103" data-name="Rectangle 1558" width="10" height="10" transform="translate(106 3506)" fill="#222121"/>
    </g>
    <g transform="translate(141 -3223)">
      <rect id="Rectangle_1558-104" data-name="Rectangle 1558" width="10" height="10" transform="translate(106 3506)" fill="#222121"/>
    </g>
    <g transform="translate(176 -3223)">
      <rect id="Rectangle_1558-105" data-name="Rectangle 1558" width="10" height="10" transform="translate(106 3506)" fill="#222121"/>
    </g>
    <g transform="translate(211 -3223)">
      <rect id="Rectangle_1558-106" data-name="Rectangle 1558" width="10" height="10" transform="translate(106 3506)" fill="#222121"/>
    </g>
    <g transform="translate(246 -3223)">
      <rect id="Rectangle_1558-107" data-name="Rectangle 1558" width="10" height="10" transform="translate(106 3506)" fill="#222121"/>
    </g>
    <g transform="translate(281 -3223)">
      <rect id="Rectangle_1558-108" data-name="Rectangle 1558" width="10" height="10" transform="translate(106 3506)" fill="#222121"/>
    </g>
    <g transform="translate(-104 -3188)">
      <rect id="Rectangle_1558-109" data-name="Rectangle 1558" width="10" height="10" transform="translate(106 3506)" fill="#222121"/>
    </g>
    <g transform="translate(-69 -3188)">
      <rect id="Rectangle_1558-110" data-name="Rectangle 1558" width="10" height="10" transform="translate(106 3506)" fill="#222121"/>
    </g>
    <g transform="translate(-34 -3188)">
      <rect id="Rectangle_1558-111" data-name="Rectangle 1558" width="10" height="10" transform="translate(106 3506)" fill="#222121"/>
    </g>
    <g transform="translate(1 -3188)">
      <rect id="Rectangle_1558-112" data-name="Rectangle 1558" width="10" height="10" transform="translate(106 3506)" fill="#222121"/>
    </g>
    <g transform="translate(36 -3188)">
      <rect id="Rectangle_1558-113" data-name="Rectangle 1558" width="10" height="10" transform="translate(106 3506)" fill="#222121"/>
    </g>
    <g transform="translate(71 -3188)">
      <rect id="Rectangle_1558-114" data-name="Rectangle 1558" width="10" height="10" transform="translate(106 3506)" fill="#222121"/>
    </g>
    <g transform="translate(106 -3188)">
      <rect id="Rectangle_1558-115" data-name="Rectangle 1558" width="10" height="10" transform="translate(106 3506)" fill="#222121"/>
    </g>
    <g transform="translate(141 -3188)">
      <rect id="Rectangle_1558-116" data-name="Rectangle 1558" width="10" height="10" transform="translate(106 3506)" fill="#222121"/>
    </g>
    <g transform="translate(176 -3188)">
      <rect id="Rectangle_1558-117" data-name="Rectangle 1558" width="10" height="10" transform="translate(106 3506)" fill="#222121"/>
    </g>
    <g transform="translate(211 -3188)">
      <rect id="Rectangle_1558-118" data-name="Rectangle 1558" width="10" height="10" transform="translate(106 3506)" fill="#222121"/>
    </g>
    <g transform="translate(246 -3188)">
      <rect id="Rectangle_1558-119" data-name="Rectangle 1558" width="10" height="10" transform="translate(106 3506)" fill="#222121"/>
    </g>
    <g transform="translate(281 -3188)">
      <rect id="Rectangle_1558-120" data-name="Rectangle 1558" width="10" height="10" transform="translate(106 3506)" fill="#222121"/>
    </g>
    <g transform="translate(-104 -3153)">
      <rect id="Rectangle_1558-121" data-name="Rectangle 1558" width="10" height="10" transform="translate(106 3506)" fill="#222121"/>
    </g>
    <g transform="translate(-69 -3153)">
      <rect id="Rectangle_1558-122" data-name="Rectangle 1558" width="10" height="10" transform="translate(106 3506)" fill="#222121"/>
    </g>
    <g transform="translate(-34 -3153)">
      <rect id="Rectangle_1558-123" data-name="Rectangle 1558" width="10" height="10" transform="translate(106 3506)" fill="#222121"/>
    </g>
    <g transform="translate(1 -3153)">
      <rect id="Rectangle_1558-124" data-name="Rectangle 1558" width="10" height="10" transform="translate(106 3506)" fill="#222121"/>
    </g>
    <g transform="translate(36 -3153)">
      <rect id="Rectangle_1558-125" data-name="Rectangle 1558" width="10" height="10" transform="translate(106 3506)" fill="#222121"/>
    </g>
    <g transform="translate(71 -3153)">
      <rect id="Rectangle_1558-126" data-name="Rectangle 1558" width="10" height="10" transform="translate(106 3506)" fill="#222121"/>
    </g>
    <g transform="translate(106 -3153)">
      <rect id="Rectangle_1558-127" data-name="Rectangle 1558" width="10" height="10" transform="translate(106 3506)" fill="#222121"/>
    </g>
    <g transform="translate(141 -3153)">
      <rect id="Rectangle_1558-128" data-name="Rectangle 1558" width="10" height="10" transform="translate(106 3506)" fill="#222121"/>
    </g>
    <g transform="translate(176 -3153)">
      <rect id="Rectangle_1558-129" data-name="Rectangle 1558" width="10" height="10" transform="translate(106 3506)" fill="#222121"/>
    </g>
    <g transform="translate(211 -3153)">
      <rect id="Rectangle_1558-130" data-name="Rectangle 1558" width="10" height="10" transform="translate(106 3506)" fill="#222121"/>
    </g>
    <g transform="translate(246 -3153)">
      <rect id="Rectangle_1558-131" data-name="Rectangle 1558" width="10" height="10" transform="translate(106 3506)" fill="#222121"/>
    </g>
    <g transform="translate(281 -3153)">
      <rect id="Rectangle_1558-132" data-name="Rectangle 1558" width="10" height="10" transform="translate(106 3506)" fill="#222121"/>
    </g>
    <g transform="translate(-104 -3118)">
      <rect id="Rectangle_1558-133" data-name="Rectangle 1558" width="10" height="10" transform="translate(106 3506)" fill="#222121"/>
    </g>
    <g transform="translate(-69 -3118)">
      <rect id="Rectangle_1558-134" data-name="Rectangle 1558" width="10" height="10" transform="translate(106 3506)" fill="#222121"/>
    </g>
    <g transform="translate(-34 -3118)">
      <rect id="Rectangle_1558-135" data-name="Rectangle 1558" width="10" height="10" transform="translate(106 3506)" fill="#222121"/>
    </g>
    <g transform="translate(1 -3118)">
      <rect id="Rectangle_1558-136" data-name="Rectangle 1558" width="10" height="10" transform="translate(106 3506)" fill="#222121"/>
    </g>
    <g transform="translate(36 -3118)">
      <rect id="Rectangle_1558-137" data-name="Rectangle 1558" width="10" height="10" transform="translate(106 3506)" fill="#222121"/>
    </g>
    <g transform="translate(71 -3118)">
      <rect id="Rectangle_1558-138" data-name="Rectangle 1558" width="10" height="10" transform="translate(106 3506)" fill="#222121"/>
    </g>
    <g transform="translate(106 -3118)">
      <rect id="Rectangle_1558-139" data-name="Rectangle 1558" width="10" height="10" transform="translate(106 3506)" fill="#222121"/>
    </g>
    <g transform="translate(141 -3118)">
      <rect id="Rectangle_1558-140" data-name="Rectangle 1558" width="10" height="10" transform="translate(106 3506)" fill="#222121"/>
    </g>
    <g transform="translate(176 -3118)">
      <rect id="Rectangle_1558-141" data-name="Rectangle 1558" width="10" height="10" transform="translate(106 3506)" fill="#222121"/>
    </g>
    <g transform="translate(211 -3118)">
      <rect id="Rectangle_1558-142" data-name="Rectangle 1558" width="10" height="10" transform="translate(106 3506)" fill="#222121"/>
    </g>
    <g transform="translate(246 -3118)">
      <rect id="Rectangle_1558-143" data-name="Rectangle 1558" width="10" height="10" transform="translate(106 3506)" fill="#222121"/>
    </g>
    <g transform="translate(281 -3118)">
      <rect id="Rectangle_1558-144" data-name="Rectangle 1558" width="10" height="10" transform="translate(106 3506)" fill="#222121"/>
    </g>
    <g transform="translate(-104 -3083)">
      <rect id="Rectangle_1558-145" data-name="Rectangle 1558" width="10" height="10" transform="translate(106 3506)" fill="#222121"/>
    </g>
    <g transform="translate(-69 -3083)">
      <rect id="Rectangle_1558-146" data-name="Rectangle 1558" width="10" height="10" transform="translate(106 3506)" fill="#222121"/>
    </g>
    <g transform="translate(-34 -3083)">
      <rect id="Rectangle_1558-147" data-name="Rectangle 1558" width="10" height="10" transform="translate(106 3506)" fill="#222121"/>
    </g>
    <g transform="translate(1 -3083)">
      <rect id="Rectangle_1558-148" data-name="Rectangle 1558" width="10" height="10" transform="translate(106 3506)" fill="#222121"/>
    </g>
    <g transform="translate(36 -3083)">
      <rect id="Rectangle_1558-149" data-name="Rectangle 1558" width="10" height="10" transform="translate(106 3506)" fill="#222121"/>
    </g>
    <g transform="translate(71 -3083)">
      <rect id="Rectangle_1558-150" data-name="Rectangle 1558" width="10" height="10" transform="translate(106 3506)" fill="#222121"/>
    </g>
    <g transform="translate(106 -3083)">
      <rect id="Rectangle_1558-151" data-name="Rectangle 1558" width="10" height="10" transform="translate(106 3506)" fill="#222121"/>
    </g>
    <g transform="translate(141 -3083)">
      <rect id="Rectangle_1558-152" data-name="Rectangle 1558" width="10" height="10" transform="translate(106 3506)" fill="#222121"/>
    </g>
    <g transform="translate(176 -3083)">
      <rect id="Rectangle_1558-153" data-name="Rectangle 1558" width="10" height="10" transform="translate(106 3506)" fill="#222121"/>
    </g>
    <g transform="translate(211 -3083)">
      <rect id="Rectangle_1558-154" data-name="Rectangle 1558" width="10" height="10" transform="translate(106 3506)" fill="#222121"/>
    </g>
    <g transform="translate(246 -3083)">
      <rect id="Rectangle_1558-155" data-name="Rectangle 1558" width="10" height="10" transform="translate(106 3506)" fill="#222121"/>
    </g>
    <g transform="translate(281 -3083)">
      <rect id="Rectangle_1558-156" data-name="Rectangle 1558" width="10" height="10" transform="translate(106 3506)" fill="#222121"/>
    </g>
  </g>
</svg>
