<svg xmlns="http://www.w3.org/2000/svg" width="78.431" height="16.266" viewBox="0 0 78.431 16.266">
  <g id="Group_760" data-name="Group 760" transform="translate(545.756 -689.142)">
    <path id="Path_1698" data-name="Path 1698" d="M184.068,294.306a4.522,4.522,0,0,0,2,.521c.689,0,1.06-.365,1.06-.817,0-.435-.264-.729-1.007-1.146a2.667,2.667,0,0,1-1.607-2.206c0-1.683,1.467-2.882,3.605-2.882a4.375,4.375,0,0,1,2.048.4l-.565,1.7a3.712,3.712,0,0,0-1.519-.329c-.689,0-1.131.311-1.131.8,0,.381.318.66.936.989a2.822,2.822,0,0,1,1.748,2.292c0,1.909-1.572,2.986-3.762,2.968a4.872,4.872,0,0,1-2.4-.589l.6-1.7Z" transform="translate(-729.224 405.106)" fill="#fff" fill-rule="evenodd"/>
    <path id="Path_1699" data-name="Path 1699" d="M270.827,255.561l2.367-12.157h2.439l-.937,4.713.035-.032a3.341,3.341,0,0,1,2.58-1.29,1.9,1.9,0,0,1,2,2.158,9.344,9.344,0,0,1-.177,1.611l-.954,5h-2.438l.918-4.847a5.648,5.648,0,0,0,.106-1.087c0-.521-.212-.9-.76-.9-.777,0-1.608,1.019-1.926,2.6l-.813,4.233Z" transform="translate(-809.922 446.096)" fill="#fff" fill-rule="evenodd"/>
    <path id="Path_1700" data-name="Path 1700" d="M392.9,293.008c0,.868.353,1.563,1.184,1.563,1.29,0,2.014-2.257,2.014-3.734,0-.711-.284-1.44-1.148-1.44-1.326,0-2.051,2.238-2.051,3.612m5.69-2.1c0,2.969-1.944,5.5-4.824,5.5a3.154,3.154,0,0,1-3.357-3.351c0-2.9,1.943-5.5,4.876-5.5a3.133,3.133,0,0,1,3.3,3.351" transform="translate(-920.384 405.31)" fill="#fff" fill-rule="evenodd"/>
    <path id="Path_1701" data-name="Path 1701" d="M493.546,295.244a1.526,1.526,0,0,0,1.007.347c1.361,0,2.3-2.2,2.3-3.75,0-.642-.229-1.32-.971-1.32-.849,0-1.645.99-1.926,2.483l-.406,2.24Zm-3.481,5.466,1.7-8.761c.194-.99.388-2.27.495-3.171h2.155l-.142,1.35h.036a3.342,3.342,0,0,1,2.58-1.5c1.784,0,2.509,1.4,2.509,3.015,0,2.916-1.872,5.79-4.734,5.79a2.494,2.494,0,0,1-1.432-.32h-.053l-.672,3.6h-2.438Z" transform="translate(-1012.445 404.325)" fill="#fff" fill-rule="evenodd"/>
    <path id="Path_1702" data-name="Path 1702" d="M616.51,245.808a1.191,1.191,0,0,1-1.148-1.29,1.419,1.419,0,0,1,1.4-1.436,1.206,1.206,0,0,1,1.219,1.268,1.424,1.424,0,0,1-1.431,1.459h-.036Zm-3.163,9.454,1.645-8.553h2.455l-1.661,8.554h-2.439Z" transform="translate(-1126.327 446.393)" fill="#fff" fill-rule="evenodd"/>
    <path id="Path_1703" data-name="Path 1703" d="M673.143,251.224l1.29-6.752H673.3l.353-1.8h1.131l.071-.43a4.564,4.564,0,0,1,1.414-2.724,3.671,3.671,0,0,1,2.385-.806,3.49,3.49,0,0,1,1.325.2l-.477,1.873a2.438,2.438,0,0,0-.777-.123c-.813,0-1.308.761-1.449,1.576l-.088.43h1.7l-.336,1.8h-1.679l-1.29,6.752Z" transform="translate(-1181.563 450.433)" fill="#fff" fill-rule="evenodd"/>
    <path id="Path_1704" data-name="Path 1704" d="M741.4,290.653l.39,3.83c.106.851.177,1.574.211,2.024h.035c.193-.45.371-1.122.724-2.041l1.485-3.812h2.544l-2.986,6.262a16.082,16.082,0,0,1-3.2,4.745,5.552,5.552,0,0,1-2.386,1.3l-.671-2.034a5.375,5.375,0,0,0,1.379-.677,4.157,4.157,0,0,0,1.325-1.442.451.451,0,0,0,.053-.378l-1.467-7.773H741.4Z" transform="translate(-1241.06 402.449)" fill="#fff" fill-rule="evenodd"/>
    <path id="Path_1705" data-name="Path 1705" d="M852.97,297.223c-1.841,0-2.569-1.246-2.107-3.605.467-2.38,1.632-3.587,3.463-3.587,2,0,2.744,1.173,2.27,3.587-.482,2.46-1.634,3.605-3.627,3.605m1.562-7.97a3.892,3.892,0,0,0-3.023,1.254l.142-.726a.345.345,0,0,0-.348-.424.552.552,0,0,0-.513.423l-2.173,11.087a.345.345,0,0,0,.348.423.553.553,0,0,0,.514-.424l.806-4.119A2.665,2.665,0,0,0,852.819,298a4.336,4.336,0,0,0,3.018-1.087,5.852,5.852,0,0,0,1.657-3.3,4.224,4.224,0,0,0-.369-3.285,2.98,2.98,0,0,0-2.592-1.077" transform="translate(-1343.649 403.744)" fill="#d09d26" fill-rule="evenodd"/>
    <path id="Path_1706" data-name="Path 1706" d="M1121.366,293.176c-1.092-.4-2.123-.773-1.926-1.772.1-.5.514-1.346,2.186-1.346a2.364,2.364,0,0,1,2.047.881.3.3,0,0,0,.253.117.507.507,0,0,0,.471-.388.346.346,0,0,0-.05-.271l-.006-.011a2.94,2.94,0,0,0-2.562-1.1c-1.717,0-2.943.813-3.2,2.123-.308,1.567,1.1,2.092,2.35,2.554,1.077.4,2.094.778,1.906,1.737-.264,1.354-1.709,1.555-2.547,1.555a2.61,2.61,0,0,1-2.385-1.032l-.005-.006a.317.317,0,0,0-.254-.117.508.508,0,0,0-.471.387.351.351,0,0,0,.05.272,3.275,3.275,0,0,0,2.912,1.273c1.944,0,3.276-.871,3.561-2.331.3-1.557-1.1-2.068-2.331-2.518" transform="translate(-1591.731 403.716)" fill="#d09d26" fill-rule="evenodd"/>
    <path id="Path_1707" data-name="Path 1707" d="M1099.315,244.616h-.909l.175-.893a.344.344,0,0,0-.348-.422.552.552,0,0,0-.513.423l-.175.894h-.909a.552.552,0,0,0-.513.423.345.345,0,0,0,.346.423h.909l-.175.892a.345.345,0,0,0,.348.424.552.552,0,0,0,.513-.424l.175-.893h.91a.555.555,0,0,0,.513-.424.344.344,0,0,0-.347-.423" transform="translate(-1572.284 446.192)" fill="#d09d26" fill-rule="evenodd"/>
    <path id="Path_1708" data-name="Path 1708" d="M1022.041,291.45a.553.553,0,0,0-.514.423l-.824,4.2a2.7,2.7,0,0,1-3.039,2.433c-2.26,0-2.315-1.264-2.074-2.5l.968-4.94a.345.345,0,0,0-.348-.423.552.552,0,0,0-.513.423l-.968,4.94a3.079,3.079,0,0,0,.213,2.27,2.843,2.843,0,0,0,2.57,1.006,4.1,4.1,0,0,0,2.964-1.006,4.183,4.183,0,0,0,1.1-2.27l.809-4.135a.345.345,0,0,0-.348-.423" transform="translate(-1497.005 402.457)" fill="#d09d26" fill-rule="evenodd"/>
    <path id="Path_1709" data-name="Path 1709" d="M976.739,243.587a.553.553,0,0,0-.514.424l-2.21,11.277a.345.345,0,0,0,.257.414.34.34,0,0,0,.091.009.552.552,0,0,0,.513-.423l2.21-11.277a.345.345,0,0,0-.348-.424" transform="translate(-1459.486 445.927)" fill="#d09d26" fill-rule="evenodd"/>
  </g>
</svg>
