<svg xmlns="http://www.w3.org/2000/svg" width="171" height="52.042" viewBox="0 0 171 52.042">
  <g id="Group_676" data-name="Group 676" transform="translate(-50 -44)">
    <g id="Group_590" data-name="Group 590" transform="translate(50 44)">
      <path id="Path_228" data-name="Path 228" d="M112.565,83.072h0a3.235,3.235,0,0,1-3.235,3.235h-1.665a3.235,3.235,0,0,1-3.235-3.235h0a3.232,3.232,0,0,1,3.235-3.232h1.665A3.232,3.232,0,0,1,112.565,83.072Z" transform="translate(-72.28 -56.891)" fill="#fff"/>
      <path id="Path_229" data-name="Path 229" d="M30.675,82.827v-.046a1.762,1.762,0,0,0-.031-.256v-.068q-.019-.108-.046-.213l-.037-.133-.028-.083a3.179,3.179,0,0,0-.927-1.434,3.13,3.13,0,0,0-1.295-.68h-.037l-.158-.031-.2-.034h-.09a1.125,1.125,0,0,1-.247-.019H1.781l-1,1.143a3.2,3.2,0,0,0,.309,4.5l.062.056a3.189,3.189,0,0,0,2.4.763H20.359L4.907,103.982a3.244,3.244,0,0,0,.309,4.56h0a3.244,3.244,0,0,0,4.563-.309L29.862,85.15a3.179,3.179,0,0,0,.457-.689l.019-.04c.028-.062.056-.121.08-.182s.034-.09.049-.136.028-.071.037-.105.043-.148.062-.222a.439.439,0,0,1,0-.068c.019-.083.031-.17.043-.253V83.4a1.3,1.3,0,0,1,.019-.266v-.108h0A.541.541,0,0,0,30.675,82.827Z" transform="translate(-0.002 -57.294)" fill="#fff"/>
      <path id="Path_230" data-name="Path 230" d="M37.449,5.343a3.2,3.2,0,0,0-.309-4.5L37.082.783a3.2,3.2,0,0,0-4.5.309L15.21,21.174h8.568Z" transform="translate(-11.818 -0.002)" fill="#fff"/>
    </g>
    <g id="Group_675" data-name="Group 675" transform="translate(99.632 60.274)">
      <g id="Group_591" data-name="Group 591" transform="translate(0 0)">
        <path id="Path_219" data-name="Path 219" d="M196.668,56.088a2.314,2.314,0,0,0-1.106-.98,3.868,3.868,0,0,0-1.568-.312,4.4,4.4,0,0,0-1,.116,3.067,3.067,0,0,0-.911.368,2.4,2.4,0,0,0-.7.659,2.052,2.052,0,0,0-.357.956,1.324,1.324,0,0,0,.391,1.269,4.68,4.68,0,0,0,1.326.762q.817.321,1.775.622a6.715,6.715,0,0,1,1.756.83,3.649,3.649,0,0,1,1.245,1.405,3.887,3.887,0,0,1,.244,2.33,5.637,5.637,0,0,1-2.345,3.919,6.563,6.563,0,0,1-2.041.969,8.4,8.4,0,0,1-2.33.323,8.016,8.016,0,0,1-2.86-.5A4.706,4.706,0,0,1,186,67.107l2.481-2.139a3.147,3.147,0,0,0,1.234,1.258,3.54,3.54,0,0,0,1.765.449,3.849,3.849,0,0,0,1.024-.139,3.536,3.536,0,0,0,.97-.415,2.811,2.811,0,0,0,.772-.7,2.205,2.205,0,0,0,.415-.98,1.525,1.525,0,0,0-.391-1.384,4.171,4.171,0,0,0-1.326-.819q-.815-.334-1.775-.642a6.9,6.9,0,0,1-1.746-.813,3.761,3.761,0,0,1-1.241-1.375,3.708,3.708,0,0,1-.257-2.325,4.984,4.984,0,0,1,.834-2.167,5.791,5.791,0,0,1,1.579-1.534,7.046,7.046,0,0,1,2.064-.911,8.865,8.865,0,0,1,2.259-.3,7.607,7.607,0,0,1,2.462.391,4.554,4.554,0,0,1,1.972,1.283Z" transform="translate(-186 -51.488)" fill="#fff"/>
        <path id="Path_220" data-name="Path 220" d="M254.829,56.915h.047a3.922,3.922,0,0,1,1.313-1.256,4.631,4.631,0,0,1,4.024-.2,2.817,2.817,0,0,1,1.119.969,3.166,3.166,0,0,1,.483,1.384,6.448,6.448,0,0,1-.024,1.636l-.958,6.976h-2.781l.785-5.6a9.739,9.739,0,0,0,.092-1.027,3.6,3.6,0,0,0-.1-1.07,1.632,1.632,0,0,0-.494-.83,1.559,1.559,0,0,0-1.08-.342,2.858,2.858,0,0,0-1.2.231,2.567,2.567,0,0,0-.856.622,3.25,3.25,0,0,0-.575.9,3.865,3.865,0,0,0-.289,1.07l-.83,6.041H250.72L253.169,49h2.768Z" transform="translate(-236.83 -49)" fill="#fff"/>
        <path id="Path_221" data-name="Path 221" d="M313.342,83.2a6.527,6.527,0,0,1,.806-2.387,6.723,6.723,0,0,1,3.637-3.008,7.059,7.059,0,0,1,2.409-.415,6.047,6.047,0,0,1,2.284.415,4.541,4.541,0,0,1,2.768,3.008,5.561,5.561,0,0,1,.137,2.387,6.448,6.448,0,0,1-.806,2.387,6.864,6.864,0,0,1-1.534,1.833,6.734,6.734,0,0,1-2.075,1.174,7.1,7.1,0,0,1-2.4.415,6.186,6.186,0,0,1-2.3-.415,4.526,4.526,0,0,1-2.781-3.008A5.563,5.563,0,0,1,313.342,83.2Zm2.766,0a3.386,3.386,0,0,0,.047,1.245,2.731,2.731,0,0,0,.494,1.07,2.567,2.567,0,0,0,.924.738,2.982,2.982,0,0,0,1.324.276,3.568,3.568,0,0,0,1.408-.276,3.736,3.736,0,0,0,1.129-.738,3.786,3.786,0,0,0,.785-1.07,4.061,4.061,0,0,0,.391-1.245,3.34,3.34,0,0,0-.047-1.245,2.69,2.69,0,0,0-.494-1.07,2.568,2.568,0,0,0-.924-.738,2.969,2.969,0,0,0-1.324-.274,3.45,3.45,0,0,0-1.4.276,3.814,3.814,0,0,0-1.117.738,4.018,4.018,0,0,0-.8,1.07A3.935,3.935,0,0,0,316.108,83.2Z" transform="translate(-285.956 -71.301)" fill="#fff"/>
        <path id="Path_222" data-name="Path 222" d="M377.116,77.661h2.629l-.231,1.66h.043a4.319,4.319,0,0,1,1.82-1.476,5.707,5.707,0,0,1,2.261-.46,5.172,5.172,0,0,1,2.225.449,4.019,4.019,0,0,1,1.544,1.232,4.583,4.583,0,0,1,.807,1.846,6.815,6.815,0,0,1,.058,2.282,7.582,7.582,0,0,1-.715,2.282,6.579,6.579,0,0,1-1.35,1.844,6.171,6.171,0,0,1-1.867,1.234,5.589,5.589,0,0,1-2.225.449,5.216,5.216,0,0,1-1.361-.16,4.156,4.156,0,0,1-1-.415,3.465,3.465,0,0,1-.7-.541,4.335,4.335,0,0,1-.46-.567h-.071l-.939,6.666H374.81ZM385.51,83.2a3.385,3.385,0,0,0-.047-1.245,2.65,2.65,0,0,0-.5-1.07,2.567,2.567,0,0,0-.918-.738,3,3,0,0,0-1.326-.276,3.423,3.423,0,0,0-1.395.276,3.823,3.823,0,0,0-1.129.738,4.01,4.01,0,0,0-.794,1.07A3.938,3.938,0,0,0,379,83.2a3.388,3.388,0,0,0,.045,1.245,2.769,2.769,0,0,0,.5,1.07,2.578,2.578,0,0,0,.922.738,3,3,0,0,0,1.326.276,3.568,3.568,0,0,0,1.408-.276,3.761,3.761,0,0,0,1.912-1.8A4.037,4.037,0,0,0,385.5,83.2Z" transform="translate(-334.281 -71.255)" fill="#fff"/>
        <path id="Path_223" data-name="Path 223" d="M485.553,56.729h-5l.37-2.629h12.912l-.368,2.629h-5l-1.925,13.69h-2.894Z" transform="translate(-417.323 -53.006)" fill="#fff"/>
        <path id="Path_224" data-name="Path 224" d="M531.684,77.665h2.764l-.252,1.752h.038a4.278,4.278,0,0,1,1.534-1.5,4.043,4.043,0,0,1,2.043-.531,2.646,2.646,0,0,1,.486.045c.152.032.314.068.483.115l-.391,2.674c-.214-.06-.428-.111-.642-.15a3.581,3.581,0,0,0-.642-.058,3.3,3.3,0,0,0-1.613.357,3.524,3.524,0,0,0-1.027.819,3.007,3.007,0,0,0-.541.922,3.215,3.215,0,0,0-.186.693l-.83,5.925H530.14Z" transform="translate(-456.281 -71.303)" fill="#fff"/>
        <path id="Path_225" data-name="Path 225" d="M577.882,87.189h-.068A4.424,4.424,0,0,1,576.1,88.56a5.3,5.3,0,0,1-3.551.214,3.422,3.422,0,0,1-1.211-.622,2.58,2.58,0,0,1-.761-1.037,2.8,2.8,0,0,1-.137-1.452,3.472,3.472,0,0,1,.99-2.109,5.313,5.313,0,0,1,1.925-1.166,8.938,8.938,0,0,1,2.34-.483q1.232-.092,2.272-.092h.689l.023-.3a1.548,1.548,0,0,0-.483-1.557,2.723,2.723,0,0,0-1.754-.518,4.623,4.623,0,0,0-1.684.31,4.873,4.873,0,0,0-1.429.843l-1.245-1.452a6.261,6.261,0,0,1,2.34-1.36,8.517,8.517,0,0,1,2.618-.415,6.113,6.113,0,0,1,1.947.263,3.681,3.681,0,0,1,1.247.682,2.394,2.394,0,0,1,.68.956,3.929,3.929,0,0,1,.252,1.1,5.591,5.591,0,0,1,0,1.07c-.039.347-.073.642-.1.911l-.875,6.364h-2.518Zm.323-3.438h-.576c-.385,0-.819.017-1.3.047a7.394,7.394,0,0,0-1.384.214,3.552,3.552,0,0,0-1.14.509,1.332,1.332,0,0,0-.577.933,1.122,1.122,0,0,0,.092.657,1.286,1.286,0,0,0,.392.451,1.646,1.646,0,0,0,.578.263,2.63,2.63,0,0,0,.67.081,3.263,3.263,0,0,0,2.212-.68,2.865,2.865,0,0,0,.945-1.855Z" transform="translate(-487.896 -71.279)" fill="#fff"/>
        <path id="Path_226" data-name="Path 226" d="M639.411,64.757h-.047a4.492,4.492,0,0,1-1.833,1.476,5.63,5.63,0,0,1-2.246.46,5.166,5.166,0,0,1-2.238-.449,4.119,4.119,0,0,1-1.544-1.234,4.558,4.558,0,0,1-.83-1.844,6.25,6.25,0,0,1-.047-2.282,6.846,6.846,0,0,1,.719-2.282,7,7,0,0,1,1.373-1.846,6.219,6.219,0,0,1,1.867-1.232,5.562,5.562,0,0,1,2.225-.449,5.018,5.018,0,0,1,1.36.16,3.853,3.853,0,0,1,.99.415,3.4,3.4,0,0,1,.693.541,4,4,0,0,1,.46.565h.071l1.1-7.754h2.768l-2.445,17.421h-2.629Zm-6.017-3.874a3.384,3.384,0,0,0,.045,1.245,2.722,2.722,0,0,0,.5,1.07,2.577,2.577,0,0,0,.922.738,3,3,0,0,0,1.326.276,3.557,3.557,0,0,0,1.405-.276,3.756,3.756,0,0,0,1.914-1.8,3.986,3.986,0,0,0,.4-1.254,3.341,3.341,0,0,0-.045-1.245,2.681,2.681,0,0,0-.5-1.07,2.569,2.569,0,0,0-.922-.738,2.994,2.994,0,0,0-1.326-.276,3.423,3.423,0,0,0-1.395.276,3.822,3.822,0,0,0-1.119.738,4.015,4.015,0,0,0-.8,1.07,3.849,3.849,0,0,0-.411,1.245Z" transform="translate(-535.076 -48.999)" fill="#fff"/>
        <path id="Path_227" data-name="Path 227" d="M701.231,84.192A2.606,2.606,0,0,0,701.4,85.3a2.34,2.34,0,0,0,.541.819,2.436,2.436,0,0,0,.83.518,2.95,2.95,0,0,0,1.07.186,3.673,3.673,0,0,0,1.81-.428,5.459,5.459,0,0,0,1.371-1.07l1.776,1.5a6.6,6.6,0,0,1-4.98,2.218,6.185,6.185,0,0,1-2.3-.415,4.707,4.707,0,0,1-1.752-1.174,4.644,4.644,0,0,1-1.025-1.833,5.521,5.521,0,0,1-.139-2.387,6.527,6.527,0,0,1,.807-2.387,6.723,6.723,0,0,1,3.637-3.008,7.071,7.071,0,0,1,2.409-.415,4.184,4.184,0,0,1,3.529,1.555,5.839,5.839,0,0,1,.807,4.462l-.116.762Zm5.964-2.077a2.275,2.275,0,0,0-.486-1.925,2.516,2.516,0,0,0-1.959-.7,3.05,3.05,0,0,0-2.075.714,3.724,3.724,0,0,0-1.153,1.912Z" transform="translate(-588.528 -71.326)" fill="#fff"/>
      </g>
    </g>
  </g>
</svg>
