<svg id="Group_590" data-name="Group 590" xmlns="http://www.w3.org/2000/svg" width="40.285" height="52.042" viewBox="0 0 40.285 52.042">
  <path id="Path_228" data-name="Path 228" d="M112.565,83.072h0a3.235,3.235,0,0,1-3.235,3.235h-1.665a3.235,3.235,0,0,1-3.235-3.235h0a3.232,3.232,0,0,1,3.235-3.232h1.665A3.232,3.232,0,0,1,112.565,83.072Z" transform="translate(-72.28 -56.891)" fill="#fff"/>
  <path id="Path_229" data-name="Path 229" d="M30.675,82.827v-.046a1.762,1.762,0,0,0-.031-.256v-.068q-.019-.108-.046-.213l-.037-.133-.028-.083a3.179,3.179,0,0,0-.927-1.434,3.13,3.13,0,0,0-1.295-.68h-.037l-.158-.031-.2-.034h-.09a1.125,1.125,0,0,1-.247-.019H1.781l-1,1.143a3.2,3.2,0,0,0,.309,4.5l.062.056a3.189,3.189,0,0,0,2.4.763H20.359L4.907,103.982a3.244,3.244,0,0,0,.309,4.56h0a3.244,3.244,0,0,0,4.563-.309L29.862,85.15a3.179,3.179,0,0,0,.457-.689l.019-.04c.028-.062.056-.121.08-.182s.034-.09.049-.136.028-.071.037-.105.043-.148.062-.222a.439.439,0,0,1,0-.068c.019-.083.031-.17.043-.253V83.4a1.3,1.3,0,0,1,.019-.266v-.108h0A.541.541,0,0,0,30.675,82.827Z" transform="translate(-0.002 -57.294)" fill="#fff"/>
  <path id="Path_230" data-name="Path 230" d="M37.449,5.343a3.2,3.2,0,0,0-.309-4.5L37.082.783a3.2,3.2,0,0,0-4.5.309L15.21,21.174h8.568Z" transform="translate(-11.818 -0.002)" fill="#fff"/>
</svg>
