<svg xmlns="http://www.w3.org/2000/svg" width="93.527" height="16.266" viewBox="0 0 93.527 16.266">
  <g id="Group_759" data-name="Group 759" transform="translate(96 -780)">
    <path id="Path_261" data-name="Path 261" d="M386.789,42.22c-2.43,0-4.15,3.134-4.15,5.534,0,1.6.691,3.123,2.679,3.123a4.305,4.305,0,0,0,2.323-.627l-.232-.589a3.772,3.772,0,0,1-1.967.556,1.841,1.841,0,0,1-1.862-1.411,5.6,5.6,0,0,1-.071-2.081c2.78.021,5.264-.567,5.264-2.686l0,0A1.772,1.772,0,0,0,386.789,42.22Zm1.189,1.856c0,1.649-2.128,2.012-4.345,2,.529-1.8,1.7-3.193,3.016-3.193.8,0,1.33.417,1.33,1.18Z" transform="translate(-426.325 741.652)" fill="#818181"/>
    <path id="Path_262" data-name="Path 262" d="M418.967,43.14h-.9L416.3,45.307c-.409.485-.6.783-.961,1.282H415.3c-.2-.434-.354-.868-.549-1.351l-.888-2.1h-.815l1.762,4.071-3.524,4.246h.9l1.923-2.358a14.618,14.618,0,0,0,.922-1.3h.034c.212.589.335.919.584,1.474l.905,2.184h.832l-1.8-4.243,3.369-4.075Z" transform="translate(-449.563 740.908)" fill="#818181"/>
    <path id="Path_263" data-name="Path 263" d="M451.784,42.222l0,0a3.706,3.706,0,0,0-2.969,1.9h-.034l.266-1.721h-.727c-.105.781-.266,1.81-.48,2.927l-1.693,9.064h.763l.675-3.672h.036a3.486,3.486,0,0,0,1.7.373c2.715,0,4.684-3.228,4.684-6.1C454,43.588,453.4,42.222,451.784,42.222Zm-2.4,8.191h0a2.669,2.669,0,0,1-1.648-.48L448.285,47c.481-2.572,2.057-4.114,3.263-4.114,1.259,0,1.65,1.136,1.65,2.147C453.2,47.222,451.638,50.413,449.386,50.413Z" transform="translate(-477.819 741.459)" fill="#818181"/>
    <path id="Path_264" data-name="Path 264" d="M497.694,44.043a1.775,1.775,0,0,0-1.986-1.821v0c-2.43,0-4.15,3.134-4.15,5.534,0,1.6.692,3.123,2.679,3.123a4.3,4.3,0,0,0,2.323-.627l-.231-.589a3.769,3.769,0,0,1-1.969.555,1.839,1.839,0,0,1-1.862-1.409,5.6,5.6,0,0,1-.072-2.074C495.211,46.75,497.694,46.162,497.694,44.043Zm-2.129-1.165c.8,0,1.33.417,1.33,1.18v.017c0,1.649-2.128,2.012-4.345,2C493.082,44.266,494.253,42.878,495.565,42.878Z" transform="translate(-514.625 741.652)" fill="#818181"/>
    <path id="Path_265" data-name="Path 265" d="M527.845,44.222h-.035c.106-.729.178-1.283.231-1.82h-.691a27.49,27.49,0,0,1-.408,2.723l-1.081,5.6h.763l.815-4.23c.354-1.82,1.6-3.468,2.715-3.468a1.2,1.2,0,0,1,.283.017l.161-.8c-.088,0-.212-.019-.32-.019a2.931,2.931,0,0,0-2.428,1.991Z" transform="translate(-542.519 741.645)" fill="#818181"/>
    <path id="Path_266" data-name="Path 266" d="M556.048,43.272c-.532,0-.763-.3-.763-.8A7.852,7.852,0,0,1,555.463,41l.936-5.069h2l.143-.657h-2l.373-1.862-.85.337-.283,1.525h-1.242l-.122.658h1.225L554.685,41a7.151,7.151,0,0,0-.2,1.561,1.288,1.288,0,0,0,1.4,1.383,2.935,2.935,0,0,0,.834-.122l-.052-.62a1.877,1.877,0,0,1-.619.071Z" transform="translate(-565.615 748.776)" fill="#818181"/>
    <path id="Path_267" data-name="Path 267" d="M576.552,42.871a2.466,2.466,0,0,1,1.206.346l.284-.643a2.588,2.588,0,0,0-1.4-.364,2.436,2.436,0,0,0-2.589,2.36,2.492,2.492,0,0,0,1.312,2.064,2,2,0,0,1,1.154,1.838,1.766,1.766,0,0,1-1.88,1.735,2.626,2.626,0,0,1-1.49-.47l-.3.627a3.039,3.039,0,0,0,1.721.5,2.536,2.536,0,0,0,2.723-2.6,2.623,2.623,0,0,0-1.313-2.151c-.693-.47-1.154-.9-1.154-1.683a1.615,1.615,0,0,1,1.728-1.559Z" transform="translate(-580.514 741.659)" fill="#818181"/>
    <path id="Path_268" data-name="Path 268" d="M110.681,45.372c-.612-.326-.933-.6-.933-.979,0-.481.439-.784,1.121-.784a4.089,4.089,0,0,1,1.516.324l.567-1.687a3.615,3.615,0,0,0-2.036-.395c-2.116,0-3.582,1.185-3.582,2.853a2.644,2.644,0,0,0,1.6,2.183c.737.412,1,.7,1,1.134s-.369.807-1.054.807a4.838,4.838,0,0,1-1.985-.515L106.3,50a4.635,4.635,0,0,0,2.388.585c2.177,0,3.741-1.048,3.741-2.937a2.83,2.83,0,0,0-1.749-2.268Z" transform="translate(-202.299 741.951)" fill="#fff"/>
    <path id="Path_269" data-name="Path 269" d="M147.3,26.537a3.277,3.277,0,0,0-2.563,1.282L144.7,27.8l.931-4.864H143.2l-2.353,12.38h2.424l.8-4.233c.32-1.6,1.14-2.581,1.913-2.581.543,0,.754.369.754.9a5.6,5.6,0,0,1-.105,1.072l-.915,4.845h2.428l.949-5.005a9.061,9.061,0,0,0,.176-1.582c.006-1.37-.716-2.195-1.975-2.195Z" transform="translate(-230.238 757.245)" fill="#fff"/>
    <path id="Path_270" data-name="Path 270" d="M193.068,41.75h0c-2.916,0-4.846,2.577-4.846,5.448a3.127,3.127,0,0,0,3.337,3.316c2.863,0,4.794-2.508,4.794-5.448A3.108,3.108,0,0,0,193.068,41.75Zm-1.2,6.942c-.825,0-1.176-.687-1.176-1.546,0-1.357.719-3.574,2.036-3.574.86,0,1.141.721,1.141,1.427C193.876,46.458,193.157,48.692,191.873,48.692Z" transform="translate(-268.717 742.032)" fill="#fff"/>
    <path id="Path_271" data-name="Path 271" d="M234.5,41.75h0a3.313,3.313,0,0,0-2.563,1.442h-.035l.142-1.3h-2.149c-.1.883-.293,2.211-.48,3.211l-1.686,8.868h2.424l.666-3.582h.054a2.806,2.806,0,0,0,1.424.32c2.847,0,4.709-2.916,4.709-5.865C236.99,43.208,236.27,41.75,234.5,41.75Zm-2.322,7.13h0a1.537,1.537,0,0,1-1.006-.351l.4-2.265c.28-1.511,1.072-2.51,1.915-2.51.737,0,.961.684.961,1.334C234.458,46.649,233.527,48.88,232.174,48.88Z" transform="translate(-300.744 741.839)" fill="#fff"/>
    <path id="Path_272" data-name="Path 272" d="M288.363,23.573a1.382,1.382,0,0,0-1.387,1.378h0v.028a1.116,1.116,0,0,0,1.141,1.211h.035a1.368,1.368,0,0,0,1.422-1.311q0-.047,0-.094a1.152,1.152,0,0,0-1.089-1.211,1.179,1.179,0,0,0-.122,0Z" transform="translate(-348.758 756.732)" fill="#fff"/>
    <path id="Path_273" data-name="Path 273" d="M276.516,51.159h2.422l1.652-8.394h-2.441" transform="translate(-340.284 741.211)" fill="#fff"/>
    <path id="Path_274" data-name="Path 274" d="M305.875,25.94h-1.687l.088-.4c.141-.825.633-1.564,1.442-1.564a2.528,2.528,0,0,1,.772.123l.481-1.9a3.213,3.213,0,0,0-1.325-.215,3.6,3.6,0,0,0-2.371.8,4.611,4.611,0,0,0-1.4,2.74l-.07.4h-1.121l-.356,1.837h1.121l-1.282,6.779h2.424l1.282-6.779h1.668l.339-1.827Z" transform="translate(-359.465 758.017)" fill="#fff"/>
    <path id="Path_275" data-name="Path 275" d="M330.171,48.656h-.035c-.046-.672-.6-5.9-.6-5.9h-2.546l1.456,7.882a.516.516,0,0,1-.053.4,4.128,4.128,0,0,1-1.317,1.458,5.237,5.237,0,0,1-1.368.685l.666,2.055a5.532,5.532,0,0,0,2.373-1.316,16.373,16.373,0,0,0,3.178-4.806l2.97-6.36H332.36s-1.508,3.819-2.187,5.9Z" transform="translate(-380.19 741.026)" fill="#fff"/>
  </g>
</svg>
